<?xml version="1.0" standalone="no"?>
<!DOCTYPE svg PUBLIC "-//W3C//DTD SVG 20010904//EN"
 "http://www.w3.org/TR/2001/REC-SVG-20010904/DTD/svg10.dtd">
<svg version="1.0" xmlns="http://www.w3.org/2000/svg"
 width="2048.000000pt" height="2048.000000pt" viewBox="0 0 2048 2048"
 preserveAspectRatio="xMidYMid meet">
<g transform="translate(0,2048) scale(0.112,-0.112) translate(-180,-160)"
fill="#f3edd9" stroke="none">
<path d="M10193 15422 c-17 -26 -73 -119 -124 -207 -51 -88 -123 -209 -160 -270 -37 -60 -109 -180 -160 -265 -101 -170 -154 -256 -207 -340 -20 -30 -50 -80 -67 -110 -28 -48 -157 -262 -304 -500 -134 -220 -213 -349 -231 -380 -12 -19 -40 -65 -63 -102 -23 -38 -75 -123 -116 -190 -96 -161 -180 -297 -201 -329 -10 -14 -30 -48 -45 -75 -14 -27 -39 -69 -55 -94 -15 -25 -49 -79 -74 -120 -25 -41 -86 -140 -135 -220 -117 -188 -225 -365 -286 -465 -116 -189 -223 -364 -252 -410 -18 -27 -97 -156 -176 -285 -80 -129 -173 -280 -207 -335 -34 -55 -70 -113 -79 -129 -9 -15 -39 -65 -67 -110 -28 -44 -84 -137 -126 -206 -41 -69 -93 -154 -115 -190 -66 -106 -244 -396 -323 -525 -83 -136 -156 -255 -246 -400 -34 -55 -144 -235 -244 -400 -190 -312 -232 -380 -310 -505 -98 -156 -461 -743 -581 -938 -68 -112 -154 -252 -190 -310 -36 -59 -107 -174 -158 -257 -50 -82 -131 -214 -179 -292 -48 -78 -107 -174 -131 -215 -188 -310 -299 -490 -326 -533 -18 -27 -42 -70 -54 -93 -12 -24 -37 -65 -55 -90 -42 -60 -91 -151 -84 -157 6 -6 12359 -7 12365 -1 4 4 -32 76 -50 100 -7 10 -146 232 -256 409 -20 32 -43 68 -51 82 -8 13 -51 83 -94 157 -44 73 -103 169 -132 213 -29 44 -84 132 -123 195 -38 63 -110 180 -159 260 -140 230 -460 748 -512 830 -26 41 -114 183 -195 315 -82 132 -180 290 -218 350 -39 61 -110 175 -158 255 -47 80 -121 201 -164 270 -43 69 -133 215 -200 325 -67 110 -141 229 -163 265 -43 67 -145 234 -202 330 -57 93 -111 181 -170 275 -73 115 -120 192 -205 335 -38 63 -83 138 -100 165 -18 28 -76 122 -130 210 -54 88 -144 234 -200 325 -56 91 -112 183 -125 205 -12 22 -33 56 -45 75 -12 19 -71 114 -130 210 -60 96 -136 220 -170 275 -35 55 -127 206 -205 335 -78 129 -157 258 -174 285 -83 129 -139 220 -204 330 -40 66 -101 167 -137 225 -96 156 -165 271 -188 310 -10 19 -28 47 -38 62 -16 22 -59 95 -103 173 -6 11 -33 54 -60 95 -27 41 -88 140 -136 220 -137 227 -170 281 -211 343 -22 32 -39 60 -39 62 0 2 -37 64 -82 137 -44 73 -93 153 -107 178 -14 25 -81 136 -149 245 -67 110 -184 303 -260 429 -75 127 -141 231 -147 233 -5 2 -24 -18 -42 -45z m-123 -3899 l-1 -2298 -201 -204 -201 -205 159 -155 c87 -86 178 -180 201 -208 l43 -53 0 -1110 0 -1110 -2310 0 -2310 0 34 53 c19 30 43 69 54 88 11 19 43 75 72 124 29 50 66 115 82 145 17 30 35 62 42 70 6 8 17 25 24 38 7 13 100 169 207 347 107 178 195 327 195 330 0 4 10 21 23 38 12 18 27 41 33 52 26 47 55 96 119 200 37 61 86 140 109 178 l41 67 412 0 c227 0 413 -3 413 -6 0 -3 -35 -67 -79 -142 -43 -76 -98 -171 -121 -212 -24 -41 -53 -91 -65 -110 -12 -19 -50 -84 -85 -145 -35 -60 -78 -132 -95 -160 -55 -87 -94 -163 -88 -169 4 -3 586 -6 1294 -6 l1287 0 6 23 c3 12 6 277 6 588 l0 566 -166 161 -166 162 -362 2 -361 3 -3 348 -2 347 362 0 363 0 168 163 167 162 0 925 c0 599 -3 921 -10 914 -8 -8 -91 -149 -178 -304 -59 -106 -180 -315 -211 -365 -17 -27 -80 -135 -140 -240 -60 -104 -133 -230 -163 -280 -30 -49 -74 -125 -99 -168 -24 -42 -67 -114 -94 -160 l-51 -82 -407 -3 c-224 -1 -407 -1 -407 1 0 8 47 94 72 132 14 22 79 130 144 240 64 110 145 245 179 300 34 55 91 150 127 210 160 270 296 497 346 580 31 50 66 110 80 135 14 25 49 83 77 130 29 47 79 130 112 185 32 55 113 190 180 300 66 110 170 283 230 385 61 102 147 246 193 320 45 74 90 149 100 165 9 17 59 100 109 185 51 85 111 187 134 225 22 39 54 93 71 120 27 45 118 196 223 373 41 67 72 112 79 112 2 0 4 -1034 4 -2297z m368 2251 c9 -19 56 -98 103 -177 47 -78 166 -277 264 -442 98 -165 192 -322 210 -350 18 -27 63 -102 100 -165 38 -63 92 -153 120 -200 29 -47 84 -139 124 -205 89 -148 80 -133 142 -235 29 -47 73 -121 99 -165 26 -44 79 -133 119 -198 39 -65 71 -120 71 -123 0 -2 20 -35 43 -72 24 -37 73 -116 109 -177 36 -60 116 -193 177 -295 62 -102 125 -207 140 -235 32 -58 84 -145 181 -300 88 -141 97 -156 219 -365 57 -96 122 -204 146 -240 23 -36 45 -76 49 -88 l7 -22 -412 2 -412 3 -40 65 c-22 36 -61 103 -87 150 -26 47 -91 159 -145 250 -111 187 -267 455 -300 515 -12 22 -42 74 -67 115 -25 41 -98 167 -163 280 -64 113 -121 209 -126 214 -5 6 -9 -431 -9 -1072 l0 -1082 600 0 599 0 3 -346 c2 -190 1 -348 -1 -350 -2 -2 -274 -4 -603 -4 l-598 0 0 -750 0 -750 1295 0 c879 0 1295 3 1295 10 0 6 -25 52 -56 103 -31 50 -70 117 -87 147 -16 30 -38 66 -47 80 -10 14 -46 77 -82 140 -36 63 -110 193 -166 287 -56 95 -102 175 -102 178 0 3 187 4 416 3 l417 -3 159 -265 c88 -146 167 -278 177 -295 32 -58 225 -381 256 -430 17 -27 70 -115 117 -195 47 -80 130 -221 184 -313 54 -92 107 -181 116 -198 l18 -29 -2310 0 -2310 0 1 3768 c1 2072 4 3791 7 3819 4 58 14 59 40 7z"/>
</g>
</svg>